<svg xmlns="http://www.w3.org/2000/svg" viewBox="0 0 96 96" role="img" aria-label="Cash">
  <rect width="96" height="96" rx="24" fill="#dcfce7"/>
  <rect x="14" y="26" width="68" height="44" rx="8" fill="#16a34a"/>
  <path d="M24 38c6 0 10-4 10-10h28c0 6 4 10 10 10v20c-6 0-10 4-10 10H34c0-6-4-10-10-10V38Z" fill="#bbf7d0"/>
  <circle cx="48" cy="48" r="12" fill="#16a34a"/>
  <path d="M48 38v20M42 44c0-4 12-4 12 0 0 6-12 2-12 8 0 4 12 4 12 0" stroke="#fff" stroke-width="5" stroke-linecap="round" stroke-linejoin="round"/>
  <circle cx="27" cy="48" r="4" fill="#16a34a"/>
  <circle cx="69" cy="48" r="4" fill="#16a34a"/>
</svg>
